classDiagram

    direction LR

    class AbstractInterface~ResourceRead, ResourceQuery, ResourceCreate, ResourceUpdate~ {
        <<Interface>>
        List~ResourceRead~ Find(ResourceQuery query)
        ResourceRead Create(ResourceCreate data)
        ResourceRead Read(string id)
        ResourceRead Update(string id, ResourceUpdate data)
        ResourceRead Delete(string id)
    }

    class UsersInterface {
        <<Interface>>
        List~UserRead~ Find(UserQuery query)
        UserRead Create(UserCreate data)
        UserRead Read(string id)
        UserRead Update(string id, UserUpdate data)
        UserRead Delete(string id)
    }

    class IssuesInterface {
        <<Interface>>
        List~IssueRead~ Find(IssueQuery query)
        IssueRead Create(IssueCreate data)
        IssueRead Read(string id)
        IssueRead Update(string id, IssueUpdate data)
        IssueRead Delete(string id)
    }

    class CommentsInterface {
        <<Interface>>
        List~CommentRead~ Find(CommentQuery query)
        CommentRead Create(CommentCreate data)
        CommentRead Read(string id)
        CommentRead Update(string id, CommentUpdate data)
        CommentRead Delete(string id)
    }
    
    AbstractInterface <|-- UsersInterface
    AbstractInterface <|-- IssuesInterface
    AbstractInterface <|-- CommentsInterface